<svg xmlns="http://www.w3.org/2000/svg" xmlns:xlink="http://www.w3.org/1999/xlink" width="500" zoomAndPan="magnify" viewBox="0 0 375 374.999991" height="500" preserveAspectRatio="xMidYMid meet" version="1.0"><defs><g/><clipPath id="a978639c1b"><path d="M 122.09375 102.367188 L 250 102.367188 L 250 225.367188 L 122.09375 225.367188 Z M 122.09375 102.367188 " clip-rule="nonzero"/></clipPath></defs><g clip-path="url(#a978639c1b)"><path fill="#ffffff" d="M 247.871094 136.148438 C 242.601562 115.714844 225.121094 102.554688 204.015625 102.542969 C 179.589844 102.523438 155.160156 102.535156 130.730469 102.535156 L 140.304688 119.398438 C 161.554688 119.359375 182.792969 119.371094 204.042969 119.386719 C 211.050781 119.386719 217.367188 121.445312 222.6875 126.117188 C 230.980469 133.378906 233.496094 142.800781 232.394531 153.378906 C 231.136719 165.625 223.101562 175.910156 212.132812 178.539062 C 207.484375 179.664062 202.480469 179.222656 197.664062 179.703125 C 194.933594 179.988281 193.546875 178.851562 192.257812 176.578125 C 183.378906 160.953125 174.367188 145.398438 165.394531 129.835938 C 163.757812 126.988281 161.972656 126.960938 160.355469 129.753906 C 157.972656 133.875 155.59375 138 153.210938 142.125 C 143.148438 159.566406 133.082031 176.996094 123.035156 194.449219 C 122.726562 194.984375 122.519531 195.570312 122.097656 196.515625 L 124.828125 196.515625 C 143.714844 196.515625 162.605469 196.558594 181.492188 196.453125 C 182.867188 196.441406 183.820312 196.734375 184.597656 197.40625 C 185.089844 197.816406 185.5 198.371094 185.910156 199.09375 C 190.84375 207.816406 195.886719 216.472656 200.851562 225.179688 L 220.390625 225.179688 C 218.0625 221.128906 215.828125 217.277344 213.609375 213.425781 C 210.453125 207.957031 207.3125 202.480469 204.199219 197.042969 C 204.574219 196.75 204.691406 196.582031 204.828125 196.574219 C 205.390625 196.519531 205.972656 196.5 206.550781 196.480469 C 215.1875 196.121094 223.011719 193.414062 230.117188 188.523438 C 247.660156 176.488281 252.589844 154.488281 247.871094 136.148438 Z M 151.171875 179.46875 C 155.078125 172.6875 158.84375 166.148438 162.832031 159.226562 C 165.078125 163.128906 167.25 166.90625 169.433594 170.707031 C 171.101562 173.59375 172.769531 176.496094 174.480469 179.46875 Z M 151.171875 179.46875 " fill-opacity="1" fill-rule="nonzero"/></g><g fill="#ffffff" fill-opacity="1"><g transform="translate(127.800706, 262.853177)"><g><path d="M 4.375 0 L 6.25 -5 L 14.296875 -5 L 16.203125 0.3125 L 20.265625 -0.25 L 12.015625 -21.234375 L 8.578125 -21.234375 L 0.3125 0 Z M 10.203125 -15.671875 L 13.046875 -8.265625 L 7.4375 -8.265625 Z M 10.203125 -15.671875 "/></g></g></g><g fill="#ffffff" fill-opacity="1"><g transform="translate(148.375044, 262.853177)"><g><path d="M 6.6875 0 L 6.6875 -8.046875 L 10.484375 -8.046875 L 14.984375 0 L 19.296875 0 L 14.078125 -9.109375 C 15.179688 -9.648438 16.0625 -10.398438 16.71875 -11.359375 C 17.375 -12.316406 17.703125 -13.429688 17.703125 -14.703125 C 17.703125 -16.828125 16.914062 -18.445312 15.34375 -19.5625 C 13.769531 -20.675781 11.753906 -21.234375 9.296875 -21.234375 L 2.65625 -21.234375 L 2.65625 0 Z M 9.171875 -17.859375 C 12.003906 -17.859375 13.421875 -16.742188 13.421875 -14.515625 C 13.421875 -13.429688 13.039062 -12.632812 12.28125 -12.125 C 11.519531 -11.613281 10.503906 -11.359375 9.234375 -11.359375 L 6.6875 -11.359375 L 6.6875 -17.859375 Z M 9.171875 -17.859375 "/></g></g></g><g fill="#ffffff" fill-opacity="1"><g transform="translate(167.981542, 262.853177)"><g><path d="M 6.6875 -3.15625 L 6.6875 -9.109375 L 14.265625 -9.109375 L 13.609375 -12.328125 L 6.6875 -12.328125 L 6.6875 -18.046875 L 15.953125 -18.046875 L 15.328125 -21.234375 L 2.65625 -21.234375 L 2.65625 0 L 17.515625 0 L 16.859375 -3.15625 Z M 6.6875 -3.15625 "/></g></g></g><g fill="#ffffff" fill-opacity="1"><g transform="translate(186.120681, 262.853177)"><g><path d="M 1.46875 -1.40625 C 2.175781 -0.96875 3.179688 -0.554688 4.484375 -0.171875 C 5.785156 0.210938 6.875 0.40625 7.75 0.40625 C 9.40625 0.40625 10.832031 0.15625 12.03125 -0.34375 C 13.226562 -0.84375 14.132812 -1.53125 14.75 -2.40625 C 15.363281 -3.28125 15.671875 -4.289062 15.671875 -5.4375 C 15.671875 -6.457031 15.425781 -7.34375 14.9375 -8.09375 C 14.445312 -8.851562 13.835938 -9.5 13.109375 -10.03125 C 12.378906 -10.5625 11.398438 -11.179688 10.171875 -11.890625 L 9.265625 -12.421875 L 8.265625 -12.984375 C 7.210938 -13.609375 6.453125 -14.125 5.984375 -14.53125 C 5.515625 -14.9375 5.28125 -15.441406 5.28125 -16.046875 C 5.28125 -16.753906 5.578125 -17.289062 6.171875 -17.65625 C 6.765625 -18.019531 7.523438 -18.203125 8.453125 -18.203125 C 9.265625 -18.203125 10.019531 -18.085938 10.71875 -17.859375 C 11.414062 -17.628906 12.191406 -17.304688 13.046875 -16.890625 L 14.390625 -20.140625 C 12.179688 -21.203125 10.179688 -21.734375 8.390625 -21.734375 C 6.878906 -21.734375 5.578125 -21.488281 4.484375 -21 C 3.390625 -20.507812 2.550781 -19.832031 1.96875 -18.96875 C 1.382812 -18.101562 1.09375 -17.128906 1.09375 -16.046875 C 1.09375 -15.023438 1.390625 -14.101562 1.984375 -13.28125 C 2.578125 -12.457031 3.285156 -11.742188 4.109375 -11.140625 C 4.929688 -10.535156 6.039062 -9.816406 7.4375 -8.984375 L 8.359375 -8.421875 C 9.421875 -7.847656 10.207031 -7.347656 10.71875 -6.921875 C 11.226562 -6.492188 11.484375 -6.019531 11.484375 -5.5 C 11.484375 -4.75 11.160156 -4.175781 10.515625 -3.78125 C 9.867188 -3.382812 8.925781 -3.1875 7.6875 -3.1875 C 6.875 -3.1875 5.976562 -3.335938 5 -3.640625 C 4.019531 -3.941406 3.144531 -4.289062 2.375 -4.6875 Z M 1.46875 -1.40625 "/></g></g></g><g fill="#ffffff" fill-opacity="1"><g transform="translate(202.573909, 262.853177)"><g><path d="M 8.546875 0 L 11.984375 0 L 20.265625 -21.234375 L 16.203125 -21.234375 L 10.359375 -5.5625 L 4.375 -21.546875 L 0.3125 -20.984375 Z M 8.546875 0 "/></g></g></g><g fill="#ffffff" fill-opacity="1"><g transform="translate(223.148247, 262.853177)"><g><path d="M 17.296875 0 L 21.390625 0 L 21.390625 -21.234375 L 18.921875 -21.234375 L 12.390625 -11.421875 L 5.21875 -21.234375 L 2.65625 -21.234375 L 2.65625 0 L 6.6875 0 L 6.6875 -12.953125 L 11.765625 -6.4375 L 13.328125 -6.65625 L 17.296875 -12.234375 Z M 17.296875 0 "/></g></g></g></svg>